<svg width="14" height="13" viewBox="0 0 14 13" fill="none" xmlns="http://www.w3.org/2000/svg">
<g clip-path="url(#clip0_7965_2178)">
<path fill-rule="evenodd" clip-rule="evenodd" d="M10.2429 10.46C9.69746 10.9899 9.1169 11.5403 9.1169 11.5403L8.11593 9.83145C9.16412 9.57611 10.0703 8.97099 10.7022 8.14755L11.7969 10.0158C11.7969 10.0158 11.0165 10.2402 10.2429 10.46ZM7.00013 9.13719C4.91584 9.13719 3.22666 7.44385 3.22666 5.35579C3.22666 3.26773 4.91584 1.57438 7.00013 1.57438C9.08441 1.57438 10.7736 3.26773 10.7736 5.35579C10.7736 7.44385 9.08441 9.13719 7.00013 9.13719ZM4.88335 11.5403C4.88335 11.5403 4.30279 10.9899 3.75736 10.46C2.98378 10.2402 2.20339 10.0158 2.20339 10.0158L3.29804 8.14755C3.92998 8.97099 4.83614 9.57611 5.88432 9.83145L4.88335 11.5403ZM11.163 7.41023C11.4663 6.80172 11.6416 6.1203 11.6416 5.39695C11.6416 2.87148 9.56337 0.824219 7.00013 0.824219C4.43688 0.824219 2.35864 2.87148 2.35864 5.39695C2.35864 6.1203 2.53391 6.80172 2.83722 7.41023L0.953125 10.6247C0.953125 10.6247 2.14787 10.8645 3.35999 11.1138C4.16832 12.0136 4.97287 12.9114 4.97287 12.9114L6.70512 9.95535C6.80333 9.96139 6.90041 9.97008 7.00013 9.97008C7.09984 9.97008 7.19692 9.96139 7.29513 9.95535L9.02738 12.9114C9.02738 12.9114 9.83193 12.0136 10.6403 11.1138C11.8524 10.8645 13.0471 10.6247 13.0471 10.6247L11.163 7.41023ZM7.00013 7.24554C5.95685 7.24554 5.1115 6.4002 5.1115 5.35692C5.1115 4.31364 5.95685 3.46829 7.00013 3.46829C8.0434 3.46829 8.88875 4.31364 8.88875 5.35692C8.88875 6.4002 8.0434 7.24554 7.00013 7.24554ZM7.00013 2.71284C5.53984 2.71284 4.35605 3.89663 4.35605 5.35692C4.35605 6.8172 5.53984 8.00099 7.00013 8.00099C8.46041 8.00099 9.6442 6.8172 9.6442 5.35692C9.6442 3.89663 8.46041 2.71284 7.00013 2.71284Z" fill="black"/>
</g>
<defs>
<clipPath id="clip0_7965_2178">
<rect width="12.0872" height="12.0872" fill="white" transform="translate(0.956055 0.823242)"/>
</clipPath>
</defs>
</svg>
