<svg width="15" height="16" viewBox="0 0 15 16" fill="none" xmlns="http://www.w3.org/2000/svg">
<path d="M10.5189 7.34022C11.8308 7.34022 12.8943 5.72482 12.8943 3.73212C12.8943 1.73942 11.8308 0.124023 10.5189 0.124023C9.20704 0.124023 8.14355 1.73942 8.14355 3.73212C8.14355 5.72482 9.20704 7.34022 10.5189 7.34022Z" fill="#451470"/>
<path d="M10.5214 9.4043C9.50334 9.4043 8.68893 9.81665 8.07812 10.3321C9.02827 11.5692 9.43548 13.0124 9.50334 13.1155L9.57121 13.3217V15.5896H15.0006V13.5278C14.9328 13.5278 13.8469 9.4043 10.5214 9.4043Z" fill="#451470"/>
<path d="M2.03603 3.73212C2.03603 1.77344 3.12191 0.124023 4.41139 0.124023C5.70088 0.124023 6.78676 1.77344 6.78676 3.73212C6.78676 5.6908 5.70088 7.34022 4.41139 7.34022C3.12191 7.34022 2.03603 5.6908 2.03603 3.73212ZM4.41139 9.40199C1.08588 9.40199 0 13.5255 0 13.5255V15.5873H8.82279V13.5255C8.82279 13.5255 7.73691 9.40199 4.41139 9.40199Z" fill="#451470"/>
</svg>
